<svg xmlns="http://www.w3.org/2000/svg" width="1600" height="1000" viewBox="0 0 1600 1000"><g fill="none" stroke="#7fa8a0" stroke-width="1.1" stroke-opacity="0.55"><path d="M282.8,250.0 L283.8,255.4 L283.9,261.0 L282.6,266.6 L279.8,271.7 L276.0,276.0 L271.4,279.5 L266.5,282.4 L261.2,284.5 L255.6,285.6 L250.0,285.1 L244.8,283.1 L240.3,280.0 L236.5,276.4 L233.2,273.2 L229.6,270.4 L225.6,267.8 L221.3,264.6 L217.4,260.6 L214.7,255.6 L213.6,250.0 L213.9,244.3 L215.3,238.7 L217.5,233.5 L220.4,228.5 L224.1,224.1 L228.7,220.7 L234.0,218.7 L239.6,217.9 L244.9,217.9 L250.0,218.3 L255.0,218.7 L260.0,219.2 L265.1,220.3 L270.0,222.5 L273.9,226.1 L276.8,230.5 L278.7,235.4 L280.1,240.2 L281.4,245.0 L282.8,250.0Z"/><path d="M308.0,250.0 L308.5,259.3 L309.6,269.4 L309.9,280.5 L307.8,292.0 L302.5,302.5 L294.0,310.6 L283.6,315.9 L272.4,318.8 L261.1,320.2 L250.0,320.6 L239.0,319.7 L228.2,317.0 L218.5,311.9 L210.2,304.8 L203.5,296.5 L198.0,287.8 L192.9,279.1 L188.2,270.1 L184.5,260.4 L182.7,250.0 L183.7,239.5 L187.5,229.7 L193.0,221.0 L199.1,213.0 L205.0,205.0 L211.1,196.5 L218.3,187.8 L227.3,180.2 L238.2,175.3 L250.0,173.9 L261.7,175.9 L272.6,180.4 L282.4,186.4 L291.0,193.5 L298.4,201.6 L303.9,210.8 L307.2,220.9 L308.3,231.1 L308.2,240.8 L308.0,250.0Z"/><path d="M362.0,250.0 L359.9,267.4 L354.8,284.0 L347.3,299.6 L337.7,313.7 L325.4,325.4 L310.6,333.5 L294.5,337.3 L278.5,337.7 L263.7,336.5 L250.0,335.9 L236.2,336.8 L221.2,338.5 L204.8,338.6 L188.2,335.1 L173.2,326.8 L161.3,314.4 L152.8,299.5 L147.1,283.4 L143.4,266.9 L141.7,250.0 L142.9,233.0 L147.9,216.8 L156.6,202.4 L168.1,190.5 L180.7,180.7 L193.4,172.0 L206.0,163.7 L219.4,155.9 L234.2,150.2 L250.0,148.2 L265.7,150.9 L280.1,157.4 L292.9,165.8 L304.8,174.6 L317.0,183.0 L330.0,191.9 L342.7,202.8 L353.3,216.4 L360.0,232.6 L362.0,250.0Z"/><path d="M394.2,250.0 L388.2,271.9 L376.8,291.2 L362.8,307.5 L348.7,321.7 L335.4,335.4 L322.0,349.2 L307.1,362.1 L289.9,372.7 L270.6,380.0 L250.0,384.1 L228.5,385.8 L206.0,385.4 L182.6,382.3 L159.5,374.6 L139.3,360.7 L124.9,340.9 L118.0,317.3 L117.7,293.0 L121.4,270.4 L125.9,250.0 L129.6,230.9 L132.9,212.0 L137.8,192.8 L146.1,174.5 L158.3,158.3 L173.5,144.7 L190.5,133.2 L208.8,123.1 L228.5,114.4 L250.0,108.4 L272.6,107.1 L294.9,111.9 L314.9,122.6 L332.0,137.1 L346.8,153.2 L360.6,169.7 L373.8,186.9 L385.5,206.0 L393.1,227.3 L394.2,250.0Z"/><path d="M434.8,250.0 L428.3,278.2 L418.8,304.8 L406.2,329.6 L389.8,351.6 L369.3,369.3 L345.9,382.0 L321.5,390.4 L297.7,396.7 L274.2,402.9 L250.0,409.1 L224.1,413.3 L197.3,412.3 L171.6,403.9 L149.4,388.5 L131.6,368.4 L116.9,346.7 L103.2,324.8 L89.4,302.2 L76.6,277.5 L67.8,250.0 L66.1,220.9 L72.9,192.4 L86.9,166.9 L105.6,145.1 L126.7,126.7 L149.2,111.3 L173.3,99.4 L198.8,92.4 L224.9,91.5 L250.0,96.2 L273.1,103.9 L295.0,111.5 L317.6,117.4 L342.6,122.6 L369.8,130.2 L396.3,143.7 L418.1,164.4 L431.8,190.9 L436.9,220.4 L434.8,250.0Z"/><path d="M436.1,250.0 L434.1,279.2 L430.6,308.7 L425.6,339.5 L417.3,371.5 L402.8,402.8 L380.2,429.3 L350.6,447.5 L317.0,456.2 L282.9,457.5 L250.0,455.0 L218.1,451.4 L186.1,446.8 L154.0,438.5 L123.9,423.6 L99.0,401.0 L81.4,372.5 L71.0,341.2 L65.5,310.0 L62.3,279.7 L60.7,250.0 L61.8,220.2 L67.6,190.7 L79.1,162.9 L95.3,137.6 L114.2,114.2 L134.4,90.9 L156.6,66.7 L182.7,43.0 L214.2,23.8 L250.0,14.4 L286.8,17.8 L320.3,33.7 L347.9,57.9 L369.6,85.4 L387.4,112.6 L403.2,138.7 L417.3,164.8 L428.3,192.1 L434.6,220.8 L436.1,250.0Z"/><path d="M507.2,250.0 L505.2,290.4 L496.9,330.2 L480.9,367.7 L456.2,399.8 L423.9,423.9 L387.7,439.6 L351.4,449.1 L317.1,456.5 L284.0,464.7 L250.0,473.2 L213.9,478.2 L176.8,475.2 L142.0,461.9 L112.2,439.6 L88.0,412.0 L67.3,382.8 L47.5,353.2 L27.9,322.2 L10.9,287.9 L0.3,250.0 L-0.8,210.3 L8.0,171.4 L24.6,135.2 L46.3,102.0 L71.7,71.7 L101.1,45.1 L135.4,25.1 L173.7,15.2 L213.1,16.8 L250.0,28.1 L282.6,43.9 L312.1,58.8 L341.7,70.0 L374.0,79.3 L408.9,91.1 L443.0,109.8 L471.8,137.0 L492.0,171.4 L503.3,209.9 L507.2,250.0Z"/><path d="M558.8,250.0 L553.1,298.0 L532.2,341.7 L500.2,377.5 L463.8,405.3 L428.4,428.4 L395.8,450.6 L363.9,473.6 L329.6,495.0 L291.2,510.3 L250.0,515.8 L208.7,510.9 L169.3,498.4 L131.8,481.9 L95.2,463.1 L59.2,440.8 L25.8,412.9 L-1.2,378.0 L-18.9,337.4 L-27.2,293.9 L-28.6,250.0 L-26.1,206.3 L-20.6,162.1 L-9.9,117.6 L9.9,75.6 L41.0,41.0 L81.8,18.4 L127.1,8.8 L171.6,8.9 L212.4,12.6 L250.0,15.1 L287.1,15.5 L325.9,16.5 L365.8,22.7 L405.0,36.7 L441.2,58.8 L473.8,87.4 L503.5,120.8 L529.7,159.1 L549.7,202.5 L558.8,250.0Z"/><path d="M595.8,250.0 L578.8,302.1 L551.0,347.8 L518.9,387.0 L485.8,421.3 L451.9,451.9 L415.5,477.8 L376.1,497.4 L334.6,510.2 L292.5,518.3 L250.0,525.0 L205.3,532.2 L156.5,537.8 L104.1,536.4 L52.4,522.0 L8.0,492.0 L-24.0,449.0 L-42.5,399.0 L-51.0,347.8 L-54.5,298.2 L-56.0,250.0 L-54.3,201.8 L-45.6,154.0 L-26.6,109.1 L2.8,70.4 L39.4,39.4 L79.0,14.7 L119.3,-6.4 L160.6,-25.2 L204.0,-40.1 L250.0,-47.3 L296.5,-43.7 L340.9,-29.7 L381.8,-8.7 L420.9,14.7 L461.0,39.0 L503.1,66.1 L544.3,100.1 L577.7,143.5 L596.0,195.2 L595.8,250.0Z"/><path d="M612.9,250.0 L601.5,305.7 L582.8,358.1 L555.2,405.5 L518.2,444.9 L473.9,473.9 L426.9,493.5 L381.8,508.7 L339.5,525.3 L297.0,546.8 L250.0,570.5 L196.3,589.2 L138.1,594.3 L81.3,581.1 L31.4,550.9 L-9.1,509.1 L-41.2,461.6 L-67.4,411.7 L-88.0,359.8 L-100.6,305.5 L-101.8,250.0 L-89.9,196.2 L-67.2,146.9 L-38.6,102.9 L-8.4,62.3 L22.7,22.7 L57.0,-15.7 L97.7,-48.9 L145.6,-71.3 L197.8,-79.5 L250.0,-74.8 L299.5,-62.7 L347.2,-49.2 L396.1,-36.8 L448.2,-22.8 L501.4,-1.4 L549.8,32.2 L586.9,78.3 L608.9,133.4 L616.4,192.0 L612.9,250.0Z"/><path d="M665.8,250.0 L649.8,313.3 L615.7,368.8 L570.3,413.2 L522.7,448.1 L479.3,479.3 L440.7,512.5 L402.3,548.9 L358.6,584.3 L307.2,611.4 L250.0,624.4 L191.1,622.2 L133.6,608.3 L78.3,587.0 L24.5,560.3 L-26.8,526.8 L-72.1,484.0 L-106.1,431.4 L-125.3,371.9 L-130.7,310.3 L-127.0,250.0 L-118.9,191.6 L-108.0,133.7 L-91.0,76.2 L-63.1,22.5 L-21.5,-21.5 L31.4,-50.9 L89.2,-65.5 L145.9,-70.4 L198.8,-73.2 L250.0,-78.9 L303.3,-86.7 L360.8,-90.9 L420.5,-84.6 L478.3,-64.2 L530.2,-30.2 L574.8,14.0 L612.5,65.3 L642.7,122.4 L662.2,184.7 L665.8,250.0Z"/><path d="M673.1,250.0 L676.0,317.5 L664.6,384.7 L636.5,446.9 L594.2,500.1 L543.5,543.5 L489.8,580.1 L435.1,613.2 L377.6,642.8 L315.6,664.2 L250.0,670.3 L185.6,656.9 L127.9,625.7 L79.6,584.4 L38.2,541.5 L-2.1,502.1 L-45.4,464.6 L-91.1,423.8 L-133.4,374.6 L-164.9,315.7 L-181.1,250.0 L-182.0,181.6 L-170.5,113.4 L-148.7,46.9 L-116.2,-16.1 L-70.9,-70.9 L-12.5,-111.3 L55.3,-132.1 L125.4,-133.5 L191.1,-122.1 L250.0,-107.5 L305.0,-97.1 L360.9,-91.4 L420.5,-84.5 L481.3,-68.3 L537.5,-37.5 L583.6,7.7 L617.8,62.6 L642.4,122.5 L660.7,184.9 L673.1,250.0Z"/><path d="M750.3,250.0 L739.2,327.5 L704.6,397.7 L655.2,456.4 L601.2,505.2 L549.0,549.0 L498.3,591.8 L444.9,632.4 L384.8,665.0 L318.5,682.6 L250.0,682.6 L183.8,667.9 L121.7,644.8 L62.3,618.5 L3.5,589.3 L-53.7,553.7 L-105.0,507.9 L-145.2,451.4 L-172.1,387.2 L-188.0,319.4 L-197.5,250.0 L-203.1,178.2 L-202.3,103.0 L-188.0,26.8 L-153.5,-43.2 L-97.8,-97.8 L-26.9,-131.1 L49.3,-143.9 L122.0,-143.9 L188.2,-140.0 L250.0,-137.7 L311.1,-136.0 L373.4,-129.7 L435.3,-113.7 L494.4,-86.4 L549.7,-49.7 L602.5,-6.1 L653.7,44.3 L700.5,103.6 L735.6,173.1 L750.3,250.0Z"/><path d="M732.6,250.0 L728.3,325.8 L707.2,398.5 L669.8,463.9 L621.4,519.9 L568.3,568.3 L513.6,612.8 L456.0,654.3 L392.7,689.1 L323.0,710.8 L250.0,714.5 L178.6,701.1 L111.2,677.1 L46.2,650.0 L-20.9,622.8 L-92.1,592.1 L-163.3,550.3 L-224.8,491.9 L-265.4,417.5 L-279.2,333.8 L-268.0,250.0 L-239.8,172.4 L-202.9,102.8 L-161.7,40.2 L-115.8,-15.8 L-63.4,-63.4 L-4.4,-100.2 L58.3,-126.3 L121.3,-146.1 L184.1,-165.9 L250.0,-188.9 L323.1,-211.4 L403.9,-223.6 L486.9,-215.0 L562.6,-180.3 L622.5,-122.5 L664.1,-50.8 L691.2,25.2 L710.2,100.5 L724.7,174.8 L732.6,250.0Z"/><path d="M1189.3,180.0 L1191.4,186.6 L1192.6,193.8 L1191.9,201.4 L1188.7,208.1 L1183.0,213.0 L1176.0,215.8 L1168.7,216.7 L1161.9,216.6 L1155.7,216.3 L1150.0,215.9 L1144.4,215.3 L1139.0,213.9 L1133.9,211.6 L1129.2,208.7 L1124.6,205.4 L1119.7,202.0 L1114.6,198.0 L1109.8,193.1 L1106.3,186.9 L1105.0,180.0 L1106.2,173.1 L1109.4,166.8 L1113.5,161.4 L1117.7,156.5 L1121.7,151.7 L1126.0,146.9 L1131.0,142.8 L1137.0,140.0 L1143.5,139.2 L1150.0,140.2 L1156.0,142.4 L1161.4,144.9 L1166.6,147.4 L1171.6,150.2 L1176.4,153.6 L1180.3,158.0 L1183.3,163.0 L1185.4,168.5 L1187.3,174.1 L1189.3,180.0Z"/><path d="M1225.0,180.0 L1222.8,191.5 L1221.3,203.2 L1220.1,215.7 L1217.7,229.2 L1212.4,242.4 L1203.4,253.5 L1191.3,261.0 L1177.5,264.8 L1163.5,265.4 L1150.0,264.1 L1137.1,261.2 L1125.2,256.4 L1114.7,249.2 L1106.6,239.7 L1100.9,229.1 L1096.6,218.8 L1092.0,209.6 L1085.7,200.9 L1077.8,191.4 L1070.0,180.0 L1064.9,166.5 L1064.5,152.2 L1069.2,138.8 L1077.8,127.5 L1088.5,118.5 L1099.9,111.1 L1111.7,104.9 L1124.1,100.2 L1137.0,98.1 L1150.0,99.1 L1162.2,103.2 L1173.1,108.9 L1183.1,115.0 L1193.1,120.7 L1203.3,126.7 L1213.1,134.2 L1221.0,143.8 L1225.5,155.5 L1226.5,167.9 L1225.0,180.0Z"/><path d="M1278.7,180.0 L1276.6,200.1 L1269.2,218.7 L1258.2,235.1 L1245.7,249.5 L1232.8,262.8 L1219.3,275.4 L1204.2,286.4 L1186.9,293.6 L1168.3,295.3 L1150.0,291.7 L1133.4,284.7 L1118.3,277.7 L1102.9,272.4 L1085.7,268.5 L1066.5,263.5 L1047.1,254.7 L1030.8,240.8 L1019.9,222.3 L1015.0,201.4 L1015.3,180.0 L1019.2,159.3 L1025.9,139.7 L1035.9,121.9 L1049.7,107.1 L1066.8,96.8 L1085.5,91.2 L1103.4,88.6 L1119.6,86.3 L1134.5,81.9 L1150.0,75.1 L1167.7,68.1 L1187.5,64.5 L1207.6,67.0 L1225.5,76.1 L1239.9,90.1 L1251.2,106.5 L1260.7,123.6 L1269.1,141.3 L1275.7,160.1 L1278.7,180.0Z"/><path d="M1325.0,180.0 L1316.3,206.3 L1299.3,228.5 L1278.7,245.6 L1258.9,259.1 L1242.4,272.4 L1228.4,287.9 L1213.9,305.5 L1196.4,322.7 L1174.7,336.1 L1150.0,343.8 L1123.7,346.0 L1096.8,343.8 L1069.6,337.8 L1043.1,327.2 L1019.4,310.6 L1002.0,287.5 L993.3,259.8 L993.4,230.9 L999.2,203.9 L1006.1,180.0 L1011.0,158.0 L1013.7,135.7 L1017.2,112.3 L1024.9,89.1 L1038.7,68.7 L1058.0,53.4 L1080.1,42.9 L1103.0,35.4 L1126.0,28.8 L1150.0,22.8 L1175.5,19.2 L1201.8,20.7 L1226.9,29.0 L1249.2,43.4 L1268.3,61.7 L1285.2,81.8 L1301.0,103.1 L1314.8,126.4 L1324.0,152.4 L1325.0,180.0Z"/><path d="M1344.9,180.0 L1338.8,209.9 L1332.2,239.2 L1325.6,269.5 L1316.3,300.8 L1300.9,330.9 L1278.1,356.3 L1249.0,374.3 L1216.6,384.9 L1183.3,390.0 L1150.0,391.4 L1116.9,388.9 L1084.9,380.4 L1056.4,363.6 L1034.6,338.9 L1020.6,309.4 L1012.5,279.9 L1005.6,253.6 L995.2,230.3 L979.9,206.9 L962.7,180.0 L949.5,148.2 L945.5,113.5 L952.7,79.5 L969.5,48.9 L992.7,22.7 L1019.7,0.7 L1049.5,-17.2 L1082.0,-29.2 L1116.3,-32.7 L1150.0,-26.4 L1180.4,-11.9 L1206.4,6.3 L1229.6,23.7 L1252.9,38.4 L1278.1,51.9 L1304.1,68.0 L1326.9,89.9 L1341.9,117.7 L1347.3,148.8 L1344.9,180.0Z"/><path d="M1356.9,180.0 L1362.7,213.7 L1367.5,250.7 L1365.4,289.7 L1351.9,326.7 L1326.8,356.8 L1294.0,378.2 L1258.5,392.9 L1223.1,405.1 L1187.6,417.4 L1150.0,428.7 L1109.7,434.7 L1068.6,430.5 L1030.5,414.5 L998.6,388.4 L973.2,356.8 L952.8,323.3 L936.1,289.0 L923.7,253.5 L918.4,216.7 L922.7,180.0 L936.0,146.1 L954.3,116.4 L972.1,89.4 L986.1,60.9 L997.6,27.6 L1011.6,-10.4 L1033.7,-48.3 L1066.0,-78.5 L1106.4,-95.3 L1150.0,-97.1 L1192.3,-86.8 L1231.0,-69.3 L1266.0,-47.6 L1297.1,-22.5 L1322.8,7.2 L1340.8,41.3 L1350.3,78.0 L1353.1,114.0 L1354.0,147.7 L1356.9,180.0Z"/><path d="M1402.5,180.0 L1414.8,221.9 L1421.0,268.1 L1414.6,314.8 L1392.9,356.5 L1358.9,388.9 L1318.6,412.1 L1277.4,430.0 L1236.7,447.0 L1195.0,464.1 L1150.0,477.6 L1102.3,481.4 L1055.4,471.1 L1014.0,447.0 L980.4,413.5 L953.8,376.2 L931.7,338.6 L912.8,300.8 L898.8,261.6 L892.6,220.8 L895.9,180.0 L906.8,141.5 L920.2,105.3 L931.5,68.7 L940.3,27.6 L951.0,-19.0 L970.4,-67.3 L1002.7,-109.1 L1047.3,-136.1 L1098.6,-144.3 L1150.0,-135.8 L1197.0,-116.8 L1238.8,-93.2 L1276.3,-67.9 L1309.9,-40.0 L1337.9,-7.9 L1358.5,28.5 L1371.7,67.0 L1380.9,105.0 L1390.4,141.9 L1402.5,180.0Z"/><path d="M1462.6,180.0 L1467.3,230.3 L1460.9,281.0 L1439.0,327.3 L1403.4,364.1 L1360.4,390.4 L1317.2,410.1 L1276.9,429.1 L1238.1,451.1 L1196.7,474.6 L1150.0,493.9 L1098.9,502.8 L1046.4,498.8 L995.4,483.3 L946.7,459.8 L900.0,430.0 L856.9,392.9 L822.5,346.8 L803.8,292.5 L805.4,234.6 L826.1,180.0 L858.0,133.7 L890.6,95.7 L916.7,61.1 L935.7,24.3 L953.1,-16.9 L976.1,-59.4 L1008.9,-96.9 L1051.1,-124.5 L1099.1,-141.3 L1150.0,-149.6 L1202.6,-152.1 L1256.7,-148.3 L1310.4,-134.8 L1359.2,-108.0 L1397.7,-67.7 L1423.0,-18.4 L1437.0,33.8 L1445.5,84.0 L1453.8,131.9 L1462.6,180.0Z"/><path d="M1530.5,180.0 L1530.9,240.3 L1524.9,301.8 L1510.5,363.7 L1483.1,422.0 L1439.2,469.2 L1381.0,497.9 L1315.9,505.6 L1253.1,497.3 L1198.1,483.5 L1150.0,474.0 L1103.6,472.8 L1053.9,475.6 L1000.1,474.2 L945.8,461.1 L895.9,434.1 L853.3,395.6 L817.1,349.6 L786.0,298.3 L760.9,241.6 L746.8,180.0 L749.7,116.6 L772.3,57.3 L811.4,7.5 L858.8,-31.6 L906.3,-63.7 L950.5,-94.5 L993.7,-126.8 L1040.4,-157.3 L1093.3,-178.1 L1150.0,-182.3 L1205.2,-168.3 L1254.4,-141.3 L1297.6,-109.7 L1338.6,-79.6 L1381.3,-51.3 L1425.8,-20.4 L1467.7,18.1 L1500.9,66.0 L1521.6,121.1 L1530.5,180.0Z"/><path d="M1616.7,180.0 L1605.2,252.1 L1571.7,317.0 L1527.0,372.1 L1479.9,419.7 L1433.2,463.2 L1384.7,503.0 L1330.9,535.1 L1271.6,554.4 L1210.0,559.1 L1150.0,552.6 L1092.8,541.4 L1036.4,529.6 L978.8,516.1 L921.0,495.2 L868.4,461.6 L827.5,414.3 L801.2,357.7 L786.0,298.3 L774.3,239.5 L760.3,180.0 L744.8,115.8 L735.8,45.4 L743.8,-27.0 L774.9,-92.5 L827.4,-142.6 L893.0,-173.7 L962.0,-189.0 L1028.2,-194.7 L1090.5,-195.4 L1150.0,-190.9 L1206.8,-178.4 L1259.2,-156.1 L1306.1,-126.3 L1349.3,-94.2 L1394.0,-64.0 L1445.2,-34.5 L1502.7,0.3 L1558.5,47.3 L1600.1,108.7 L1616.7,180.0Z"/><path d="M1570.1,180.0 L1584.5,248.8 L1588.3,322.4 L1573.3,395.7 L1536.1,460.5 L1480.8,510.8 L1416.4,546.6 L1350.8,574.0 L1286.5,600.0 L1220.7,626.5 L1150.0,647.7 L1075.1,653.0 L1002.3,634.7 L939.7,592.7 L892.1,535.0 L857.5,472.5 L829.7,412.7 L803.3,356.6 L777.8,300.9 L757.6,242.2 L747.5,180.0 L748.9,116.5 L758.3,52.7 L771.2,-13.0 L787.3,-83.6 L811.4,-158.6 L851.4,-231.0 L911.4,-288.2 L988.1,-318.4 L1071.3,-316.9 L1150.0,-289.8 L1218.1,-249.7 L1276.4,-209.2 L1330.1,-173.4 L1382.5,-140.0 L1432.6,-102.6 L1476.0,-56.9 L1509.3,-3.1 L1533.3,55.5 L1552.4,116.3 L1570.1,180.0Z"/><path d="M1631.3,180.0 L1614.2,253.5 L1594.7,324.5 L1571.3,394.7 L1537.5,461.5 L1487.9,517.9 L1423.4,556.3 L1351.4,575.2 L1280.4,581.2 L1214.3,585.9 L1150.0,598.0 L1080.7,617.7 L1002.1,635.1 L917.1,637.1 L834.5,614.3 L763.7,566.3 L709.7,499.9 L671.6,423.7 L646.6,343.5 L634.3,261.7 L638.1,180.0 L662.3,102.8 L706.5,35.9 L763.5,-16.9 L821.8,-58.5 L872.7,-97.3 L915.5,-142.7 L957.5,-197.8 L1008.4,-255.9 L1073.4,-303.6 L1150.0,-328.7 L1230.3,-326.8 L1306.8,-302.7 L1377.2,-265.9 L1443.1,-223.4 L1506.2,-176.2 L1563.9,-120.7 L1609.3,-54.0 L1635.6,22.2 L1641.2,102.2 L1631.3,180.0Z"/><path d="M810.7,620.0 L811.0,624.9 L810.8,630.0 L809.9,635.2 L807.9,640.3 L804.6,644.6 L800.3,647.9 L795.2,649.9 L790.0,650.9 L785.0,651.3 L780.0,651.6 L775.0,651.6 L769.9,651.0 L765.1,649.3 L760.8,646.4 L757.5,642.5 L755.1,638.1 L753.3,633.6 L751.9,629.1 L750.6,624.7 L749.7,620.0 L749.6,615.2 L750.4,610.4 L752.0,605.7 L754.3,601.3 L757.0,597.0 L760.2,592.8 L764.1,588.9 L768.9,585.8 L774.3,584.3 L780.0,584.6 L785.3,586.6 L789.8,589.7 L793.7,593.1 L797.1,596.4 L800.4,599.6 L803.6,602.9 L806.4,606.6 L808.6,610.7 L810.0,615.3 L810.7,620.0Z"/><path d="M842.7,620.0 L842.1,629.8 L840.5,639.7 L837.9,649.5 L833.8,659.1 L827.7,667.7 L819.6,674.5 L810.1,679.1 L800.2,682.0 L790.1,683.8 L780.0,684.9 L769.7,685.2 L759.2,683.9 L749.4,680.1 L741.0,673.7 L734.9,665.1 L730.9,655.7 L728.2,646.4 L725.9,637.6 L723.4,629.0 L721.1,620.0 L719.8,610.5 L720.2,600.6 L722.7,590.8 L727.0,581.5 L732.7,572.7 L739.7,564.5 L748.0,557.2 L757.9,551.9 L768.8,549.5 L780.0,550.5 L790.3,554.7 L799.2,560.8 L806.9,567.3 L813.9,573.3 L821.0,579.0 L828.0,585.1 L834.4,592.3 L839.2,600.8 L841.9,610.2 L842.7,620.0Z"/><path d="M878.3,620.0 L875.3,635.1 L871.4,649.7 L866.9,664.3 L860.7,678.7 L851.9,691.9 L840.0,702.6 L825.7,709.6 L810.2,713.1 L794.9,713.8 L780.0,712.9 L765.6,710.8 L751.7,707.1 L738.7,701.1 L727.1,692.8 L717.4,682.6 L709.1,671.5 L701.2,660.2 L692.8,648.3 L684.4,635.1 L677.5,620.0 L674.3,603.3 L676.4,586.3 L683.9,571.0 L695.4,558.5 L708.9,548.9 L723.0,541.6 L737.1,535.8 L751.3,531.5 L765.6,529.3 L780.0,529.7 L793.9,532.5 L807.0,536.9 L819.7,542.0 L832.7,547.5 L846.0,554.0 L858.8,562.8 L869.5,574.4 L876.5,588.6 L879.2,604.3 L878.3,620.0Z"/><path d="M896.8,620.0 L890.3,637.5 L885.1,654.1 L880.8,671.4 L875.9,689.7 L868.0,708.0 L855.9,724.5 L839.9,737.6 L821.2,746.9 L801.0,752.7 L780.0,755.7 L758.5,755.7 L737.2,751.7 L717.5,742.7 L700.8,729.0 L688.1,711.9 L678.8,693.5 L671.5,675.3 L664.7,657.5 L658.4,639.3 L654.0,620.0 L653.6,600.0 L658.5,580.5 L668.4,563.1 L681.4,548.3 L695.5,535.5 L709.8,523.4 L724.6,511.3 L741.0,500.0 L759.6,491.1 L780.0,486.5 L801.1,486.7 L821.8,491.3 L841.7,499.0 L860.4,509.3 L877.7,522.3 L891.9,538.7 L901.4,558.2 L904.7,579.5 L902.5,600.6 L896.8,620.0Z"/><path d="M953.1,620.0 L947.7,646.6 L937.1,671.0 L924.1,693.4 L910.1,714.5 L894.8,734.8 L876.9,753.3 L855.4,767.9 L830.9,776.7 L805.2,779.3 L780.0,777.0 L756.0,771.8 L732.9,764.9 L710.7,756.1 L689.7,744.2 L671.5,728.5 L657.0,709.4 L646.2,688.2 L637.6,666.3 L629.4,643.8 L621.2,620.0 L614.7,593.8 L613.0,565.7 L619.0,538.0 L633.6,513.7 L655.1,495.1 L680.3,482.7 L706.2,475.3 L731.5,470.8 L756.0,468.5 L780.0,468.8 L803.3,472.6 L825.4,480.3 L845.8,490.9 L865.1,502.9 L884.3,515.7 L904.2,529.8 L923.8,546.7 L940.4,567.9 L950.8,592.9 L953.1,620.0Z"/><path d="M955.1,620.0 L956.4,647.9 L956.1,677.2 L951.3,707.3 L940.0,736.3 L922.2,762.2 L899.3,784.2 L872.9,802.4 L844.0,816.9 L812.8,827.0 L780.0,830.3 L747.6,824.8 L718.2,810.1 L694.2,788.3 L675.6,763.7 L660.3,739.7 L645.2,718.0 L628.7,697.1 L611.7,674.7 L597.3,648.9 L588.7,620.0 L587.4,589.5 L593.0,559.2 L603.7,530.2 L618.1,502.4 L636.3,476.3 L659.0,453.5 L686.4,436.4 L717.2,426.8 L749.1,425.0 L780.0,428.8 L809.3,435.3 L837.6,442.7 L865.8,451.7 L893.1,464.3 L917.4,482.6 L935.8,506.8 L947.0,534.9 L952.0,564.1 L953.9,592.5 L955.1,620.0Z"/><path d="M999.7,620.0 L989.3,653.1 L975.8,683.6 L962.0,712.7 L947.8,741.9 L931.2,771.2 L909.8,798.7 L882.8,821.7 L851.1,838.7 L816.4,849.8 L780.0,856.1 L742.3,858.0 L704.0,854.0 L667.1,841.6 L635.1,819.4 L611.6,788.4 L597.7,752.4 L591.6,716.0 L589.0,682.1 L586.1,650.7 L581.7,620.0 L577.7,588.0 L577.9,554.3 L585.1,520.7 L599.9,489.2 L620.9,460.9 L646.2,435.8 L674.7,413.4 L706.8,394.6 L742.3,381.9 L780.0,378.1 L817.3,384.5 L851.6,399.7 L881.8,420.1 L909.0,442.4 L934.8,465.2 L959.7,489.5 L981.6,517.3 L997.1,549.5 L1003.2,584.6 L999.7,620.0Z"/><path d="M1025.3,620.0 L1032.0,659.9 L1029.2,701.0 L1017.6,741.1 L998.9,779.1 L974.5,814.5 L944.4,846.3 L908.2,871.6 L866.7,886.9 L822.7,889.8 L780.0,881.1 L741.2,864.9 L706.5,846.2 L673.8,828.5 L640.9,811.5 L607.9,792.1 L577.7,767.0 L554.0,735.2 L539.3,698.2 L533.0,659.1 L532.6,620.0 L535.1,581.2 L540.2,542.1 L549.7,502.7 L566.3,464.7 L591.1,431.1 L623.1,404.0 L659.5,383.6 L698.2,368.3 L738.3,356.8 L780.0,349.8 L822.7,350.3 L864.0,361.4 L900.2,384.0 L928.4,415.7 L948.6,451.4 L963.8,486.4 L978.3,519.0 L994.5,550.3 L1011.4,583.3 L1025.3,620.0Z"/><path d="M1053.5,620.0 L1056.0,663.7 L1051.2,708.1 L1035.7,750.3 L1009.7,786.9 L976.4,816.4 L940.1,840.4 L903.0,861.4 L864.8,881.1 L824.1,898.3 L780.0,909.4 L733.9,911.2 L688.1,902.8 L644.6,885.6 L603.8,862.5 L565.1,834.9 L529.5,802.0 L500.0,762.7 L481.5,717.0 L477.7,667.9 L488.4,620.0 L509.2,577.1 L533.5,539.9 L556.2,505.9 L576.3,472.0 L596.6,436.6 L621.3,401.5 L652.9,370.5 L691.2,346.6 L734.2,331.0 L780.0,322.5 L827.5,320.3 L875.9,324.9 L923.3,338.7 L966.0,364.0 L999.9,400.1 L1022.6,443.7 L1035.5,489.8 L1042.7,534.7 L1048.2,577.5 L1053.5,620.0Z"/><path d="M1093.3,620.0 L1097.2,670.2 L1091.4,721.2 L1077.7,771.7 L1056.9,821.2 L1028.3,868.3 L989.9,908.9 L942.0,937.9 L887.5,950.9 L831.9,947.8 L780.0,933.3 L733.4,914.3 L690.3,896.0 L647.8,879.4 L604.8,861.1 L563.3,836.7 L527.3,803.6 L500.2,762.6 L482.3,716.7 L471.3,668.9 L464.8,620.0 L462.7,569.7 L467.4,518.4 L482.3,468.3 L508.8,422.9 L545.1,385.1 L587.4,355.0 L632.4,330.4 L679.0,309.1 L728.0,291.6 L780.0,281.8 L833.1,284.5 L883.1,302.6 L925.6,334.3 L958.9,373.8 L985.2,414.8 L1008.9,453.7 L1033.2,491.0 L1057.9,529.7 L1079.4,572.6 L1093.3,620.0Z"/><path d="M1119.6,620.0 L1120.5,673.9 L1113.2,728.2 L1093.5,779.8 L1061.5,824.5 L1020.6,860.6 L975.8,889.5 L929.9,914.2 L882.9,936.6 L833.1,955.3 L780.0,966.7 L725.0,967.1 L670.9,955.9 L619.3,935.4 L570.1,908.9 L522.0,878.0 L475.6,841.2 L434.9,795.8 L406.8,741.3 L396.9,680.7 L406.7,620.0 L431.6,564.8 L463.9,517.3 L496.5,475.6 L527.0,436.2 L557.1,397.1 L590.7,359.5 L630.5,326.5 L676.3,301.0 L726.7,283.2 L780.0,271.6 L836.2,265.3 L895.0,266.1 L954.3,277.8 L1009.3,304.3 L1054.0,346.0 L1084.6,398.7 L1101.8,456.0 L1110.3,512.7 L1115.4,566.9 L1119.6,620.0Z"/><path d="M1161.8,620.0 L1136.9,676.5 L1109.6,727.1 L1083.8,774.8 L1058.4,822.3 L1029.1,869.1 L992.5,912.5 L947.7,949.2 L896.4,978.1 L840.3,1000.5 L780.0,1017.2 L715.6,1026.7 L648.7,1024.2 L584.0,1004.8 L528.2,966.5 L487.0,913.0 L461.0,851.7 L446.3,790.0 L436.3,731.7 L426.8,675.9 L418.5,620.0 L416.1,562.4 L424.9,504.6 L446.9,450.3 L480.0,402.0 L519.9,359.9 L563.3,321.7 L610.0,286.4 L661.5,255.4 L718.8,233.3 L780.0,224.5 L841.7,230.4 L900.8,248.1 L956.7,273.1 L1010.8,302.3 L1063.8,336.2 L1112.9,378.1 L1152.1,430.4 L1174.4,491.8 L1176.7,557.2 L1161.8,620.0Z"/><path d="M1194.9,620.0 L1188.3,684.7 L1165.8,745.4 L1133.3,800.0 L1096.8,850.2 L1058.9,898.9 L1017.7,947.1 L969.5,991.9 L912.5,1027.8 L848.1,1049.9 L780.0,1057.2 L711.6,1052.1 L644.3,1037.8 L578.6,1015.2 L516.8,982.3 L463.6,936.4 L425.3,877.7 L405.8,810.7 L403.3,742.4 L410.6,678.5 L419.2,620.0 L424.0,563.6 L426.1,505.0 L432.1,442.7 L449.2,379.6 L481.0,321.0 L526.7,271.3 L582.2,231.8 L644.0,201.4 L710.3,179.7 L780.0,168.8 L850.8,172.9 L918.1,194.9 L976.8,233.7 L1024.3,283.8 L1062.3,337.7 L1095.7,390.6 L1128.2,442.6 L1159.4,496.7 L1184.0,556.0 L1194.9,620.0Z"/><path d="M1227.3,620.0 L1245.3,693.7 L1247.1,771.8 L1226.5,847.5 L1183.7,913.3 L1124.8,964.8 L1057.6,1002.0 L988.0,1028.2 L918.2,1045.3 L848.6,1052.9 L780.0,1048.7 L714.8,1031.7 L655.0,1004.6 L600.2,972.9 L546.6,941.2 L490.2,909.8 L430.5,873.9 L372.5,827.7 L325.6,767.7 L298.5,696.3 L294.6,620.0 L310.3,545.6 L338.3,476.5 L372.3,412.3 L410.5,351.6 L455.2,295.2 L509.2,247.2 L572.3,212.4 L641.3,193.0 L711.4,187.0 L780.0,189.4 L847.0,196.7 L913.5,209.2 L978.5,230.5 L1038.2,264.7 L1087.9,312.1 L1125.4,369.0 L1153.4,429.7 L1177.6,490.8 L1202.5,553.1 L1227.3,620.0Z"/><path d="M1256.7,620.0 L1246.9,694.0 L1224.0,764.2 L1194.3,831.1 L1162.0,897.5 L1125.7,965.7 L1080.0,1032.9 L1020.0,1091.0 L945.7,1130.1 L863.0,1144.0 L780.0,1133.4 L703.1,1105.3 L634.4,1068.2 L572.4,1027.5 L515.7,983.7 L465.4,934.6 L423.7,878.9 L391.8,817.8 L367.7,754.0 L346.9,688.6 L326.4,620.0 L308.3,545.3 L300.1,464.1 L311.1,381.1 L346.4,305.0 L404.3,244.3 L476.6,202.4 L554.1,176.6 L630.7,160.5 L705.5,149.5 L780.0,143.6 L854.8,147.6 L927.5,166.0 L994.0,200.0 L1051.7,246.0 L1101.6,298.4 L1146.5,353.7 L1188.2,412.0 L1224.2,475.7 L1248.8,545.8 L1256.7,620.0Z"/><path d="M1307.6,620.0 L1289.1,700.6 L1259.2,775.7 L1223.0,845.7 L1181.4,911.6 L1131.8,971.8 L1071.8,1021.7 L1002.4,1056.5 L928.0,1075.6 L853.4,1083.6 L780.0,1088.1 L704.9,1093.9 L624.3,1099.1 L537.8,1095.4 L451.0,1072.9 L373.7,1026.3 L315.0,957.8 L278.3,875.6 L261.0,788.6 L257.4,702.8 L263.9,620.0 L280.2,540.8 L308.6,466.8 L349.9,400.9 L401.1,344.7 L456.5,296.5 L512.1,251.2 L568.1,204.1 L629.0,155.4 L699.5,111.8 L780.0,83.8 L865.5,80.0 L948.3,101.9 L1022.7,143.7 L1087.8,196.4 L1146.5,253.5 L1201.4,313.8 L1250.7,380.2 L1288.6,454.8 L1308.4,536.3 L1307.6,620.0Z"/><path d="M1436.6,780.0 L1436.2,785.7 L1434.6,791.3 L1431.7,796.2 L1427.7,800.1 L1423.2,803.2 L1418.9,806.0 L1415.0,809.4 L1411.0,813.8 L1406.1,818.5 L1400.0,822.4 L1393.0,824.1 L1386.0,823.1 L1379.8,819.7 L1374.8,814.6 L1371.0,809.0 L1368.0,803.2 L1365.9,797.4 L1364.7,791.5 L1364.8,785.6 L1366.2,780.0 L1368.2,775.0 L1370.1,770.3 L1371.4,765.4 L1372.4,759.9 L1373.8,753.8 L1376.7,747.9 L1381.3,743.3 L1387.2,740.7 L1393.7,740.1 L1400.0,740.8 L1406.0,741.9 L1412.0,743.1 L1418.1,744.5 L1424.0,747.0 L1429.2,750.8 L1432.9,756.1 L1435.1,762.1 L1436.1,768.3 L1436.5,774.2 L1436.6,780.0Z"/><path d="M1471.2,780.0 L1472.8,791.5 L1473.7,804.0 L1472.8,817.1 L1468.5,829.8 L1460.3,840.3 L1449.0,847.5 L1436.3,851.3 L1423.7,853.0 L1411.8,854.4 L1400.0,856.1 L1387.7,857.4 L1375.1,856.6 L1363.3,852.1 L1353.7,843.8 L1347.1,832.9 L1343.0,821.4 L1340.0,810.6 L1337.0,800.5 L1333.6,790.5 L1330.9,780.0 L1330.0,768.9 L1331.4,757.7 L1334.8,746.8 L1339.2,735.8 L1344.4,724.4 L1350.9,712.4 L1359.8,701.1 L1371.7,692.8 L1385.7,689.6 L1400.0,692.4 L1412.7,700.0 L1422.8,709.7 L1431.0,719.2 L1438.4,727.1 L1446.1,733.9 L1453.8,740.9 L1460.7,749.1 L1465.8,758.6 L1469.1,769.1 L1471.2,780.0Z"/><path d="M1513.0,780.0 L1511.7,797.7 L1507.8,815.0 L1499.8,830.9 L1487.4,843.5 L1472.2,852.2 L1456.8,858.1 L1442.8,863.9 L1429.9,872.1 L1416.3,883.1 L1400.0,894.6 L1380.6,902.8 L1359.5,904.5 L1339.5,898.7 L1322.4,886.8 L1308.8,871.2 L1298.2,854.0 L1290.2,835.9 L1285.6,817.2 L1285.5,798.1 L1290.4,780.0 L1299.1,764.0 L1308.9,750.4 L1317.2,737.8 L1323.1,724.1 L1328.3,708.3 L1335.4,691.1 L1346.8,675.6 L1362.5,664.7 L1381.0,660.2 L1400.0,661.1 L1418.2,665.0 L1435.8,669.8 L1453.5,675.0 L1471.1,682.1 L1487.3,692.7 L1500.1,707.3 L1508.2,724.9 L1511.9,743.6 L1513.1,762.1 L1513.0,780.0Z"/><path d="M1542.9,780.0 L1536.0,801.5 L1528.1,821.6 L1521.8,842.1 L1517.0,865.0 L1510.8,890.8 L1499.4,916.8 L1480.7,938.3 L1455.7,951.4 L1427.7,954.7 L1400.0,949.9 L1374.6,940.3 L1351.8,928.3 L1331.5,914.5 L1314.2,898.1 L1301.1,878.9 L1292.7,857.9 L1287.7,837.2 L1282.8,818.1 L1275.1,799.8 L1264.2,780.0 L1252.9,756.7 L1246.2,730.0 L1248.4,702.8 L1260.6,678.7 L1280.4,660.4 L1303.9,647.7 L1327.9,638.5 L1351.5,630.6 L1375.3,624.0 L1400.0,620.6 L1424.9,622.9 L1448.1,632.0 L1468.2,646.1 L1485.2,662.7 L1500.6,679.4 L1515.5,696.1 L1529.5,714.0 L1540.2,734.4 L1544.9,757.0 L1542.9,780.0Z"/><path d="M1595.8,780.0 L1588.6,809.9 L1574.2,836.6 L1553.4,858.2 L1529.8,874.3 L1507.5,887.5 L1488.8,902.3 L1472.4,922.0 L1454.1,946.4 L1430.2,970.8 L1400.0,988.4 L1366.1,994.2 L1332.7,987.1 L1303.0,970.4 L1277.5,948.6 L1255.4,924.6 L1236.2,899.0 L1221.2,871.1 L1212.9,840.8 L1212.7,809.7 L1219.4,780.0 L1229.3,753.0 L1238.8,727.6 L1246.7,701.9 L1255.3,674.9 L1268.3,648.3 L1288.1,626.0 L1314.2,611.6 L1343.3,605.6 L1372.3,604.9 L1400.0,604.9 L1428.1,602.8 L1458.6,599.7 L1491.7,600.0 L1524.8,608.2 L1553.6,626.4 L1574.8,653.0 L1588.0,684.2 L1594.9,716.7 L1597.4,748.7 L1595.8,780.0Z"/><path d="M1623.6,780.0 L1609.2,813.1 L1592.1,842.4 L1576.7,870.0 L1563.7,898.9 L1550.2,930.2 L1531.4,960.9 L1504.8,985.7 L1471.5,1000.1 L1435.4,1003.3 L1400.0,999.2 L1366.2,993.2 L1332.2,988.8 L1295.7,984.7 L1257.4,976.3 L1221.0,959.0 L1191.5,931.4 L1172.4,896.0 L1163.2,857.0 L1161.1,817.8 L1163.5,780.0 L1170.2,743.6 L1183.2,709.6 L1204.3,680.3 L1232.2,658.1 L1263.1,643.1 L1292.1,631.5 L1317.3,617.6 L1340.7,597.5 L1367.1,572.1 L1400.0,547.3 L1439.4,531.5 L1481.1,530.4 L1520.0,544.5 L1552.6,570.0 L1578.8,601.2 L1600.0,634.7 L1616.9,669.5 L1628.0,705.9 L1630.6,743.5 L1623.6,780.0Z"/><path d="M1679.6,780.0 L1673.0,823.2 L1661.0,864.8 L1647.3,906.0 L1631.2,948.0 L1608.8,988.8 L1576.5,1022.9 L1534.2,1043.4 L1486.6,1046.5 L1440.4,1034.8 L1400.0,1015.7 L1365.5,997.8 L1333.2,985.6 L1299.2,977.8 L1262.6,969.1 L1225.8,954.2 L1192.2,931.0 L1163.5,900.5 L1139.0,864.8 L1117.7,824.7 L1100.7,780.0 L1092.8,731.3 L1099.4,682.3 L1123.5,639.1 L1162.1,607.2 L1207.9,587.9 L1252.7,577.3 L1292.3,568.7 L1327.6,557.1 L1362.4,542.7 L1400.0,530.6 L1440.1,527.1 L1479.5,535.3 L1515.3,553.6 L1547.2,577.4 L1577.2,602.8 L1607.3,629.4 L1636.8,659.3 L1661.5,695.0 L1676.5,736.2 L1679.6,780.0Z"/><path d="M1678.4,780.0 L1683.6,824.9 L1681.8,871.6 L1675.1,920.2 L1663.3,971.3 L1643.1,1023.1 L1610.4,1069.6 L1564.2,1102.3 L1508.8,1114.9 L1451.9,1107.6 L1400.0,1087.2 L1355.1,1063.5 L1314.4,1043.4 L1273.9,1027.5 L1232.4,1010.7 L1193.1,986.9 L1161.4,953.4 L1140.5,912.2 L1129.1,868.0 L1122.6,823.9 L1117.0,780.0 L1112.2,734.4 L1112.6,686.6 L1123.1,638.9 L1146.2,595.6 L1179.3,559.3 L1217.7,529.1 L1258.1,501.5 L1300.6,474.0 L1347.5,448.7 L1400.0,432.6 L1454.8,433.8 L1505.2,456.1 L1544.7,495.9 L1571.4,544.1 L1589.1,590.9 L1604.7,631.3 L1623.2,666.3 L1644.6,700.5 L1664.7,738.1 L1678.4,780.0Z"/><path d="M1738.2,780.0 L1737.9,833.5 L1725.5,885.7 L1706.3,936.1 L1683.3,985.8 L1654.9,1034.9 L1617.6,1079.4 L1569.8,1113.3 L1514.2,1131.6 L1456.2,1134.9 L1400.0,1128.6 L1346.3,1119.1 L1293.0,1109.2 L1239.2,1095.6 L1187.9,1071.9 L1146.2,1033.8 L1120.4,983.1 L1111.9,926.8 L1114.7,872.7 L1119.0,824.5 L1117.4,780.0 L1109.2,733.9 L1100.7,682.8 L1100.5,627.4 L1114.3,572.4 L1142.3,522.3 L1181.2,478.9 L1227.4,441.3 L1279.7,409.6 L1337.8,387.5 L1400.0,381.4 L1460.7,396.6 L1512.8,432.9 L1551.6,482.5 L1578.6,534.1 L1601.0,579.0 L1626.6,615.4 L1658.8,648.1 L1693.8,684.5 L1722.8,728.9 L1738.2,780.0Z"/><path d="M1820.0,780.0 L1792.8,842.2 L1748.8,893.3 L1700.5,933.1 L1657.4,967.0 L1621.9,1001.9 L1589.2,1040.4 L1552.7,1079.7 L1508.5,1113.8 L1456.8,1138.8 L1400.0,1154.6 L1339.2,1164.1 L1273.9,1168.2 L1204.6,1163.5 L1136.2,1143.1 L1077.9,1102.1 L1039.6,1041.8 L1025.9,970.6 L1032.4,899.4 L1048.3,835.7 L1062.3,780.0 L1069.9,727.7 L1074.6,674.3 L1084.8,619.4 L1107.5,567.5 L1143.5,523.5 L1188.7,489.2 L1237.7,461.5 L1288.2,435.9 L1341.6,411.4 L1400.0,392.3 L1462.4,385.7 L1524.5,396.9 L1581.0,424.8 L1630.1,463.4 L1674.4,505.6 L1718.2,548.8 L1762.0,595.5 L1800.1,650.0 L1822.2,713.1 L1820.0,780.0Z"/><path d="M1884.7,780.0 L1886.1,857.0 L1862.3,930.2 L1812.8,990.3 L1746.1,1031.5 L1675.4,1055.4 L1611.8,1071.5 L1558.1,1090.4 L1509.6,1117.2 L1458.3,1148.1 L1400.0,1172.7 L1336.4,1181.4 L1272.9,1171.0 L1213.7,1145.7 L1158.5,1112.4 L1105.0,1075.0 L1052.2,1032.7 L1004.3,981.6 L969.2,920.0 L953.2,850.8 L956.8,780.0 L973.6,712.5 L995.6,648.6 L1018.6,585.7 L1045.5,522.5 L1083.2,463.2 L1136.2,416.9 L1202.5,392.5 L1273.9,392.0 L1341.1,408.3 L1400.0,428.6 L1453.4,442.5 L1508.0,447.6 L1568.1,450.2 L1632.3,460.2 L1695.0,485.0 L1750.3,525.5 L1796.2,578.1 L1834.1,638.9 L1864.8,706.4 L1884.7,780.0Z"/><path d="M157.6,820.0 L160.0,826.3 L161.3,833.4 L160.6,840.7 L157.5,847.2 L152.4,852.4 L146.3,856.2 L139.9,859.0 L133.4,861.2 L126.8,863.0 L120.0,863.9 L113.1,863.3 L106.7,861.0 L101.0,857.3 L96.1,852.9 L91.7,848.3 L87.6,843.5 L83.8,838.4 L80.9,832.7 L79.6,826.4 L79.9,820.0 L81.7,813.9 L83.9,808.3 L86.1,802.7 L87.9,796.7 L90.1,790.1 L93.4,783.5 L98.5,777.8 L105.1,774.1 L112.5,772.8 L120.0,773.6 L127.0,775.7 L133.5,778.6 L139.3,782.2 L144.3,786.6 L148.2,791.8 L150.8,797.6 L152.4,803.5 L153.7,809.1 L155.3,814.4 L157.6,820.0Z"/><path d="M195.8,820.0 L199.2,832.5 L199.5,845.8 L196.0,858.7 L189.3,870.4 L180.7,880.7 L170.9,890.0 L160.0,898.5 L147.8,905.5 L134.2,909.7 L120.0,910.2 L106.2,906.9 L93.6,901.1 L82.2,894.2 L71.3,887.1 L60.5,879.5 L50.6,870.4 L43.1,859.2 L39.2,846.2 L39.5,832.7 L42.9,820.0 L47.2,808.5 L50.9,797.5 L53.7,786.2 L56.6,774.0 L61.4,761.4 L69.0,749.8 L79.4,740.4 L92.0,733.7 L105.6,729.4 L120.0,727.1 L134.7,727.1 L149.2,730.1 L162.2,737.2 L172.3,748.0 L178.8,761.2 L182.2,774.8 L184.3,787.2 L187.0,798.2 L191.1,808.7 L195.8,820.0Z"/><path d="M255.0,820.0 L259.9,842.2 L259.4,865.3 L251.4,886.9 L236.0,904.3 L215.6,915.6 L193.8,921.6 L173.3,924.6 L154.9,927.4 L137.6,930.9 L120.0,934.3 L101.7,935.4 L83.3,932.8 L65.9,926.2 L49.7,916.7 L34.4,905.6 L19.4,893.1 L5.0,878.6 L-6.7,861.2 L-13.7,841.2 L-14.5,820.0 L-9.8,799.4 L-1.8,780.4 L7.2,762.6 L16.6,744.9 L27.2,727.2 L40.8,710.9 L58.2,698.8 L78.7,693.0 L100.0,693.9 L120.0,699.7 L137.8,707.4 L154.2,714.7 L170.3,721.2 L186.6,728.4 L202.3,737.7 L216.4,749.9 L228.3,764.8 L238.3,781.6 L247.2,799.9 L255.0,820.0Z"/><path d="M275.7,820.0 L280.1,845.4 L278.9,871.6 L272.5,897.7 L262.1,923.2 L248.3,948.3 L230.5,972.0 L207.7,992.1 L180.0,1004.8 L149.6,1007.2 L120.0,999.3 L94.0,984.3 L72.2,967.1 L53.0,951.6 L33.8,938.6 L13.7,926.3 L-6.1,911.7 L-23.1,892.9 L-34.9,870.3 L-41.3,845.5 L-43.8,820.0 L-44.0,794.0 L-42.1,767.3 L-36.5,740.3 L-25.1,714.6 L-7.3,692.7 L15.8,676.6 L41.4,665.8 L67.5,658.3 L93.4,652.1 L120.0,646.8 L147.8,644.7 L175.6,649.0 L200.6,661.8 L220.2,682.1 L233.4,706.6 L242.1,731.3 L249.4,754.1 L257.8,775.2 L267.3,796.7 L275.7,820.0Z"/><path d="M348.0,820.0 L342.8,855.3 L326.1,887.0 L300.9,912.2 L272.7,930.9 L246.3,946.3 L223.3,962.2 L202.0,980.8 L178.8,1000.9 L151.4,1018.5 L120.0,1030.0 L86.1,1033.7 L51.6,1030.4 L17.3,1021.5 L-16.3,1007.6 L-47.8,987.8 L-73.7,960.7 L-90.1,927.1 L-94.9,889.8 L-89.2,853.1 L-77.8,820.0 L-66.1,790.5 L-56.9,762.5 L-49.5,733.7 L-39.8,703.9 L-24.3,675.7 L-1.6,652.6 L26.5,636.6 L57.2,626.8 L88.4,620.6 L120.0,615.9 L152.8,613.0 L186.8,614.5 L220.2,623.4 L250.4,640.6 L275.6,664.4 L296.3,691.9 L314.1,721.1 L329.9,751.8 L342.5,784.8 L348.0,820.0Z"/><path d="M385.5,820.0 L392.2,863.1 L387.5,906.9 L368.6,946.7 L337.5,978.0 L299.6,999.6 L260.8,1013.7 L224.1,1024.3 L189.5,1033.8 L155.2,1042.0 L120.0,1046.4 L84.4,1045.1 L49.1,1038.1 L14.2,1027.7 L-22.0,1015.4 L-60.6,1000.6 L-100.3,980.1 L-136.0,950.4 L-160.9,911.3 L-169.7,865.9 L-162.0,820.0 L-142.4,778.4 L-118.0,742.7 L-93.8,711.1 L-71.0,681.2 L-47.5,652.5 L-20.3,626.9 L11.7,607.4 L47.0,595.2 L83.4,589.0 L120.0,585.9 L157.4,584.1 L196.4,584.9 L236.2,592.0 L273.7,608.5 L305.0,635.0 L328.4,668.6 L345.2,705.2 L359.2,742.3 L372.9,779.9 L385.5,820.0Z"/><path d="M383.6,820.0 L393.4,863.3 L393.1,908.7 L381.6,953.3 L361.3,995.3 L335.0,1035.0 L303.4,1072.4 L265.5,1105.6 L220.8,1130.2 L170.9,1141.2 L120.0,1136.8 L72.5,1119.7 L30.3,1096.1 L-8.3,1071.8 L-46.1,1048.6 L-84.1,1024.1 L-119.3,993.8 L-146.1,955.6 L-159.9,911.0 L-160.5,864.4 L-152.3,820.0 L-141.2,778.6 L-131.3,738.4 L-121.7,696.8 L-108.5,654.0 L-87.4,612.6 L-56.9,576.5 L-18.7,547.7 L24.4,525.7 L70.7,508.7 L120.0,496.7 L171.8,492.8 L223.3,502.0 L269.2,527.3 L303.8,567.0 L325.1,614.9 L336.3,662.9 L343.9,705.9 L354.0,744.0 L368.4,780.7 L383.6,820.0Z"/><path d="M458.3,820.0 L466.5,874.9 L460.4,930.6 L442.8,984.5 L416.8,1035.6 L383.1,1083.1 L340.7,1123.7 L289.3,1152.3 L231.9,1164.3 L173.8,1159.8 L120.0,1143.8 L71.8,1124.3 L26.6,1107.3 L-19.2,1093.2 L-66.7,1077.0 L-112.6,1052.6 L-150.6,1016.6 L-176.1,970.9 L-189.3,920.5 L-194.5,869.8 L-197.1,820.0 L-199.4,769.4 L-198.5,716.5 L-189.2,662.4 L-167.5,611.1 L-133.2,566.8 L-89.8,531.2 L-41.6,502.9 L9.5,479.9 L63.4,462.7 L120.0,455.2 L176.6,462.8 L227.9,488.0 L269.0,527.7 L298.7,574.0 L321.5,618.5 L344.2,657.1 L372.0,691.6 L404.6,727.5 L435.9,770.0 L458.3,820.0Z"/><path d="M506.7,820.0 L493.5,879.2 L467.7,933.0 L433.8,979.9 L397.9,1021.9 L362.9,1062.9 L327.2,1105.2 L286.2,1146.1 L236.6,1179.0 L179.6,1196.6 L120.0,1196.4 L62.6,1182.3 L8.9,1161.9 L-43.7,1141.3 L-98.8,1121.1 L-156.3,1096.3 L-211.2,1060.7 L-255.3,1011.2 L-282.0,950.6 L-290.1,884.9 L-283.2,820.0 L-267.0,758.7 L-244.4,701.6 L-215.0,649.3 L-176.8,604.3 L-130.0,570.0 L-78.1,547.4 L-26.3,532.8 L22.2,519.0 L69.3,499.7 L120.0,474.3 L178.7,449.4 L244.8,436.0 L312.1,443.0 L372.4,472.6 L420.0,520.0 L454.2,577.2 L478.5,637.3 L496.0,697.8 L506.5,758.8 L506.7,820.0Z"/><path d="M545.0,820.0 L539.1,886.4 L520.4,950.1 L487.7,1007.4 L444.4,1055.7 L396.5,1096.5 L348.0,1133.7 L298.5,1170.2 L244.8,1204.2 L184.8,1229.1 L120.0,1238.0 L55.3,1228.4 L-4.9,1204.4 L-60.4,1174.0 L-114.9,1143.4 L-172.9,1112.9 L-233.8,1077.1 L-290.9,1029.4 L-333.5,967.3 L-353.1,894.9 L-348.2,820.0 L-324.2,749.7 L-289.4,687.0 L-249.9,631.5 L-207.1,582.3 L-159.5,540.5 L-106.1,508.8 L-49.0,488.4 L8.3,476.2 L63.9,465.8 L120.0,451.2 L181.4,432.3 L251.1,416.4 L326.5,414.7 L399.2,435.8 L459.1,480.9 L500.4,543.6 L524.1,614.1 L536.4,684.7 L542.9,753.0 L545.0,820.0Z"/><path d="M564.5,60.0 L560.0,66.3 L555.9,71.6 L552.8,76.7 L550.7,82.3 L548.4,88.4 L544.8,94.1 L539.7,98.6 L533.4,101.1 L526.7,102.0 L520.0,102.1 L513.3,102.1 L506.4,101.9 L499.2,100.8 L492.3,98.2 L486.4,93.6 L481.9,87.7 L478.7,81.0 L476.2,74.2 L474.0,67.3 L472.3,60.0 L472.1,52.4 L474.4,45.2 L479.2,39.2 L485.9,35.2 L493.0,33.0 L499.3,31.4 L504.4,29.3 L509.0,26.1 L514.0,22.0 L520.0,18.3 L526.9,16.1 L534.3,16.0 L541.6,17.6 L548.7,20.5 L555.5,24.5 L561.6,29.8 L566.3,36.4 L568.6,44.2 L567.8,52.4 L564.5,60.0Z"/><path d="M603.9,60.0 L598.8,72.5 L591.8,83.3 L584.8,93.0 L579.0,102.8 L574.2,114.2 L568.8,127.1 L560.7,139.8 L549.1,149.6 L534.9,154.2 L520.0,153.6 L505.8,149.4 L492.7,144.2 L479.7,139.1 L466.3,133.9 L453.0,127.0 L441.4,117.1 L433.6,104.0 L430.1,89.2 L430.4,74.2 L432.7,60.0 L435.7,46.6 L439.6,33.9 L445.3,21.9 L453.6,11.8 L464.3,4.3 L476.0,-0.6 L487.1,-4.7 L497.3,-10.0 L507.7,-17.8 L520.0,-27.2 L535.1,-35.1 L552.0,-38.4 L568.4,-35.0 L582.1,-25.5 L592.0,-12.0 L598.5,3.0 L602.7,17.9 L605.4,32.3 L606.0,46.4 L603.9,60.0Z"/><path d="M662.8,60.0 L666.2,83.2 L660.4,105.6 L647.7,125.1 L632.1,141.4 L616.2,156.2 L600.3,170.5 L583.2,184.0 L563.7,194.4 L542.0,199.1 L520.0,197.2 L499.4,190.2 L480.7,180.9 L463.3,171.3 L446.4,161.3 L430.5,149.5 L417.7,134.3 L409.8,116.1 L407.2,96.7 L407.4,77.8 L407.1,60.0 L403.8,41.6 L398.5,20.5 L394.8,-3.8 L397.0,-29.3 L407.8,-52.2 L426.5,-68.7 L449.9,-77.6 L474.5,-80.1 L498.0,-78.8 L520.0,-75.1 L540.4,-68.9 L558.8,-59.4 L574.1,-46.2 L586.0,-30.8 L595.6,-15.6 L605.7,-2.3 L618.7,9.7 L634.8,22.7 L651.1,39.2 L662.8,60.0Z"/><path d="M687.4,60.0 L695.2,87.7 L696.5,117.3 L689.4,146.3 L675.1,172.7 L656.2,196.2 L634.4,217.5 L609.9,236.5 L582.0,251.0 L551.2,256.8 L520.0,251.0 L492.4,234.0 L471.0,210.7 L455.0,187.5 L440.5,169.4 L423.3,156.7 L401.5,146.1 L377.4,132.6 L355.7,113.4 L340.6,88.4 L333.4,60.0 L332.7,30.3 L336.5,0.4 L344.3,-29.5 L357.4,-58.1 L377.4,-82.6 L404.3,-99.2 L435.2,-106.4 L466.1,-105.8 L494.4,-101.8 L520.0,-99.0 L545.2,-98.8 L571.6,-98.9 L598.8,-94.6 L623.5,-82.4 L642.3,-62.3 L654.3,-37.6 L661.7,-12.2 L668.5,11.7 L677.3,35.1 L687.4,60.0Z"/><path d="M753.8,60.0 L762.3,98.4 L760.1,138.0 L743.6,173.9 L714.1,201.0 L677.7,217.7 L641.0,226.5 L607.8,232.3 L578.0,238.6 L549.4,245.5 L520.0,250.3 L489.9,250.3 L459.8,245.3 L429.6,237.3 L397.6,228.4 L362.0,218.0 L323.7,202.6 L288.1,178.2 L262.9,143.5 L254.4,102.1 L263.6,60.0 L285.6,22.9 L312.2,-7.5 L337.1,-33.2 L358.3,-57.5 L378.2,-81.8 L400.7,-104.3 L427.5,-121.6 L457.6,-132.0 L488.8,-136.9 L520.0,-139.5 L552.0,-142.1 L586.2,-143.7 L622.0,-140.3 L656.3,-127.6 L684.7,-104.7 L704.9,-74.3 L718.3,-41.0 L729.1,-8.0 L741.1,25.0 L753.8,60.0Z"/><path d="M797.6,60.0 L788.2,102.5 L768.5,140.7 L743.3,173.8 L717.6,203.6 L693.0,233.0 L667.1,262.4 L636.4,288.5 L599.7,305.4 L559.5,309.7 L520.0,302.8 L483.4,291.1 L448.1,281.3 L409.8,276.2 L365.8,272.2 L318.1,261.9 L273.6,239.0 L240.3,202.5 L223.2,156.4 L221.3,107.3 L230.1,60.0 L244.8,16.4 L263.7,-23.3 L287.9,-58.3 L318.7,-86.2 L354.7,-105.3 L391.6,-116.7 L425.4,-125.6 L455.4,-138.7 L485.2,-159.6 L520.0,-185.8 L562.5,-208.5 L610.4,-218.2 L657.2,-209.3 L696.7,-183.3 L726.5,-146.5 L748.8,-106.2 L767.2,-65.9 L783.4,-25.6 L795.0,16.4 L797.6,60.0Z"/><path d="M810.8,60.0 L815.5,106.8 L811.5,154.7 L792.9,199.0 L759.9,234.3 L718.8,258.8 L677.2,276.4 L639.6,294.7 L604.3,319.4 L565.9,349.7 L520.0,378.1 L466.9,395.0 L411.4,394.2 L359.2,375.6 L313.5,344.2 L274.7,305.3 L242.3,261.8 L218.0,213.9 L206.3,161.9 L211.2,108.9 L231.9,60.0 L261.5,19.1 L289.9,-14.8 L309.5,-47.2 L320.0,-85.3 L328.4,-131.6 L344.1,-182.1 L373.5,-227.5 L416.3,-259.3 L467.1,-274.1 L520.0,-275.0 L571.9,-267.7 L622.7,-255.9 L672.2,-238.8 L718.1,-212.7 L755.5,-175.5 L780.5,-129.3 L793.5,-79.3 L799.3,-30.8 L804.2,15.0 L810.8,60.0Z"/><path d="M841.3,60.0 L819.7,107.5 L798.7,150.6 L785.2,195.1 L777.8,247.3 L768.0,308.0 L745.5,370.3 L705.1,423.2 L649.0,457.1 L584.8,469.3 L520.0,463.7 L458.8,446.7 L402.3,422.4 L351.7,390.3 L310.2,348.7 L281.8,298.2 L267.3,243.6 L261.7,191.6 L255.8,145.8 L241.4,104.1 L217.4,60.0 L191.3,7.9 L175.6,-51.9 L180.3,-113.1 L207.5,-167.1 L251.1,-208.9 L302.0,-240.0 L354.2,-265.5 L406.6,-289.1 L461.5,-309.5 L520.0,-320.4 L579.5,-315.5 L634.9,-293.7 L682.7,-259.4 L723.5,-220.0 L760.5,-180.5 L796.0,-140.5 L827.6,-96.7 L848.7,-46.8 L853.3,7.2 L841.3,60.0Z"/></g></svg>